<?xml version="1.0" encoding="UTF-8"?>
<!DOCTYPE svg PUBLIC "-//W3C//DTD SVG 1.1//EN" "http://www.w3.org/Graphics/SVG/1.1/DTD/svg11.dtd">
<!-- Creator: CorelDRAW 2020 (64 Bit) -->
<svg xmlns="http://www.w3.org/2000/svg" xml:space="preserve" width="114.207mm" height="135.459mm" version="1.1" style="shape-rendering:geometricPrecision; text-rendering:geometricPrecision; image-rendering:optimizeQuality; fill-rule:evenodd; clip-rule:evenodd"
viewBox="0 0 896.22 1062.99"
 xmlns:xlink="http://www.w3.org/1999/xlink"
 xmlns:xodm="http://www.corel.com/coreldraw/odm/2003">
 <defs>
  <style type="text/css">
   <![CDATA[
    .fil0 {fill:black}
    .fil1 {fill:#E6030A}
   ]]>
  </style>
 </defs>
 <g id="Camada_x0020_1">
  <metadata id="CorelCorpID_0Corel-Layer"/>
  <g id="_1950175980160">
   <path class="fil0" d="M274.1 592.74c33,67.85 34.19,-9.07 34.36,124.23 0.07,53.52 -0.18,107.05 -0.01,160.56 0.18,55.45 -0.24,95.21 29.96,131.66 60.83,73.42 162.55,69.49 217.88,1.51 32.9,-40.43 31.16,-70.99 31.23,-130.41l0.54 -239.81c2.18,-9.27 20.8,-22.74 33.99,-47.58 43.24,21.19 75.76,38.7 137.28,25.52 45.41,-9.72 78.12,-33.61 103.55,-67.99 25,-33.8 40.27,-81.87 30.21,-134.51 -11.33,-59.28 -34.64,-76.18 -65.06,-106.69 -82.56,-82.77 -175.82,-173.14 -256.71,-258.21 -63.22,-66.48 -178.5,-69.22 -245,-1.12l-86.55 85.1c-57.88,57.88 -113.81,113.71 -171.81,171.46 -26.08,25.96 -54.75,56.65 -64.59,107.17 -17.76,91.15 36.3,181.9 131.05,204.19 63.48,14.94 94.85,-3.86 139.69,-25.1zm269.05 78.13c-87.51,28.33 -95.06,34.85 -189.71,-0.19 -3.11,31.3 -0.56,74.53 -0.69,107.19 -0.22,56.96 -8.46,167.35 19.55,203.07 38.43,49 110.09,49.65 148.92,3.12 19.97,-23.93 21.72,-51.21 21.93,-89.92 0.41,-74.39 -0.65,-148.92 -0.01,-223.28zm59.27 -155.64l-89.28 -0.54c-19.29,62.43 -110.46,61.41 -130.38,0.11l-89.36 -0.02c9.85,72.53 72.63,134.86 154.6,134.39 79.43,-0.45 148.46,-62.62 154.42,-133.94zm-163.16 -45.76c-30.31,10.84 -14.67,57.38 17.96,46.44 27.72,-9.3 16.01,-58.58 -17.96,-46.44zm-185.31 81.4c-0.09,-28.36 -14.72,-46.02 -2,-101.92 36.55,-160.53 242.99,-217.02 353.57,-80.5 15.99,19.74 30.69,47.05 37.97,78.22 13.52,57.87 -0.52,69.33 -1.46,104.2 105.34,85.65 257,-36.8 196.07,-160.34 -15.01,-30.43 -47.5,-57.61 -68.37,-78.35 -49.64,-49.35 -96.76,-97.93 -146.84,-146.63 -24.2,-23.54 -50.9,-48.89 -73.1,-73.61 -57.4,-63.91 -147.42,-63.06 -202.07,-1.23 -55.33,62.6 -266.57,253.9 -288.82,298.1 -19.01,37.75 -19.26,79.49 -0.96,117.47 36.08,74.91 137.1,94.25 196.01,44.6z"/>
   <path class="fil1" d="M293.48 470.07l89.02 0.25c23.26,-63.05 107.99,-62.69 130.99,0.01l88.85 -0.1c-8.19,-72.97 -74.22,-134.42 -154.34,-134.03 -80.92,0.39 -145.88,60.6 -154.51,133.88z"/>
  </g>
 </g>
</svg>
